HIERARCHY
ROOT reference
{
  OFFSET 0 0 0
  CHANNELS 6 Xposition Yposition Zposition Zrotation Xrotation Yrotation
  JOINT Hips
  {
    OFFSET 5.38178 90.6761 1.81191
    CHANNELS 3 Zrotation Xrotation Yrotation
    JOINT RightUpLeg
    {
      OFFSET -9.25803 -1.54697 -0.00637561
      CHANNELS 3 Zrotation Xrotation Yrotation
      JOINT RightLeg
      {
        OFFSET 0.0268913 -41.8813 0.0496324
        CHANNELS 3 Zrotation Xrotation Yrotation
        JOINT RightFoot
        {
          OFFSET -0.0075405 -41.0447 -1.56222
          CHANNELS 3 Zrotation Xrotation Yrotation
          End Site
          {
            OFFSET 0 -7.69 17.5
          }
        }
      }
    }
    JOINT LeftUpLeg
    {
      OFFSET 9.25661 -1.65174 -0.0423925
      CHANNELS 3 Zrotation Xrotation Yrotation
      JOINT LeftLeg
      {
        OFFSET 0.0628197 -41.8797 -0.0329119
        CHANNELS 3 Zrotation Xrotation Yrotation
        JOINT LeftFoot
        {
          OFFSET 0.273935 -42.9132 0.732662
          CHANNELS 3 Zrotation Xrotation Yrotation
          End Site
          {
            OFFSET 0 -7.69 17.5
          }
        }
      }
    }
    JOINT Spine
    {
      OFFSET 0.000727368 14.3064 0.0249211
      CHANNELS 3 Zrotation Xrotation Yrotation
      JOINT Spine1
      {
        OFFSET 0.00017259 9.71309 0.0173608
        CHANNELS 3 Zrotation Xrotation Yrotation
        JOINT Spine2
        {
          OFFSET 0.0170683 10.1169 0.0221706
          CHANNELS 3 Zrotation Xrotation Yrotation
          JOINT Spine3
          {
            OFFSET 0.0141731 9.72121 0.0200587
            CHANNELS 3 Zrotation Xrotation Yrotation
            JOINT Neck
            {
              OFFSET -0.00891923 10.3827 0.0141478
              CHANNELS 3 Zrotation Xrotation Yrotation
              JOINT Head
              {
                OFFSET 0.00211689 9.46518 0.0169776
                CHANNELS 3 Zrotation Xrotation Yrotation
                End Site
                {
                  OFFSET 0 15.95 0
                }
              }
            }
            JOINT RightShoulder
            {
              OFFSET -3.1829 6.92202 0.0312592
              CHANNELS 3 Zrotation Xrotation Yrotation
              JOINT RightArm
              {
                OFFSET -12.7447 0.0137376 0.0283513
                CHANNELS 3 Zrotation Xrotation Yrotation
                JOINT RightForeArm
                {
                  OFFSET -26.5106 0.00162974 0.0584383
                  CHANNELS 3 Zrotation Xrotation Yrotation
                  JOINT RightHand
                  {
                    OFFSET -25.9985 -0.0458555 0.00254856
                    CHANNELS 3 Zrotation Xrotation Yrotation
                    JOINT RightHandThumb1
                    {
                      OFFSET -2.48905 0.190105 3.12053
                      CHANNELS 3 Zrotation Xrotation Yrotation
                      JOINT RightHandThumb2
                      {
                        OFFSET -3.68274 0 0
                        CHANNELS 3 Zrotation Xrotation Yrotation
                        JOINT RightHandThumb3
                        {
                          OFFSET -2.55832 0 0
                          CHANNELS 3 Zrotation Xrotation Yrotation
                          End Site
                          {
                            OFFSET -2.194 0 0
                          }
                        }
                      }
                    }
                    JOINT RightInHandIndex
                    {
                      OFFSET -3.22368 0.508421 1.97842
                      CHANNELS 3 Zrotation Xrotation Yrotation
                      JOINT RightHandIndex1
                      {
                        OFFSET -5.21684 -0.091368 0.999158
                        CHANNELS 3 Zrotation Xrotation Yrotation
                        JOINT RightHandIndex2
                        {
                          OFFSET -3.61937 0 0
                          CHANNELS 3 Zrotation Xrotation Yrotation
                          JOINT RightHandIndex3
                          {
                            OFFSET -2.0521 0 0
                            CHANNELS 3 Zrotation Xrotation Yrotation
                            End Site
                            {
                              OFFSET -1.805 0 0
                            }
                          }
                        }
                      }
                    }
                    JOINT RightInHandMiddle
                    {
                      OFFSET -3.38211 0.517263 0.756737
                      CHANNELS 3 Zrotation Xrotation Yrotation
                      JOINT RightHandMiddle1
                      {
                        OFFSET -5.17411 -0.084 0.313895
                        CHANNELS 3 Zrotation Xrotation Yrotation
                        JOINT RightHandMiddle2
                        {
                          OFFSET -3.94947 0 0
                          CHANNELS 3 Zrotation Xrotation Yrotation
                          JOINT RightHandMiddle3
                          {
                            OFFSET -2.47579 0 0
                            CHANNELS 3 Zrotation Xrotation Yrotation
                            End Site
                            {
                              OFFSET -1.975 0 0
                            }
                          }
                        }
                      }
                    }
                    JOINT RightInHandRing
                    {
                      OFFSET -3.36516 0.537895 -0.128947
                      CHANNELS 3 Zrotation Xrotation Yrotation
                      JOINT RightHandRing1
                      {
                        OFFSET -4.63474 -0.022105 -0.478947
                        CHANNELS 3 Zrotation Xrotation Yrotation
                        JOINT RightHandRing2
                        {
                          OFFSET -3.44238 0 0
                          CHANNELS 3 Zrotation Xrotation Yrotation
                          JOINT RightHandRing3
                          {
                            OFFSET -2.3881 0 0
                            CHANNELS 3 Zrotation Xrotation Yrotation
                            End Site
                            {
                              OFFSET -1.857 0 0
                            }
                          }
                        }
                      }
                    }
                    JOINT RightInHandPinky
                    {
                      OFFSET -3.16105 0.469368 -1.20179
                      CHANNELS 3 Zrotation Xrotation Yrotation
                      JOINT RightHandPinky1
                      {
                        OFFSET -4.14105 -0.022105 -1.09053
                        CHANNELS 3 Zrotation Xrotation Yrotation
                        JOINT RightHandPinky2
                        {
                          OFFSET -2.75653 0 0
                          CHANNELS 3 Zrotation Xrotation Yrotation
                          JOINT RightHandPinky3
                          {
                            OFFSET -1.74189 0 0
                            CHANNELS 3 Zrotation Xrotation Yrotation
                            End Site
                            {
                              OFFSET -1.645 0 0
                            }
                          }
                        }
                      }
                    }
                  }
                }
              }
            }
            JOINT LeftShoulder
            {
              OFFSET 3.2093 6.90502 -0.00894666
              CHANNELS 3 Zrotation Xrotation Yrotation
              JOINT LeftArm
              {
                OFFSET 12.8653 -0.0335514 -0.0467315
                CHANNELS 3 Zrotation Xrotation Yrotation
                JOINT LeftForeArm
                {
                  OFFSET 26.5072 -0.0839873 -0.0553917
                  CHANNELS 3 Zrotation Xrotation Yrotation
                  JOINT LeftHand
                  {
                    OFFSET 26.0127 -0.0742211 -0.0237236
                    CHANNELS 3 Zrotation Xrotation Yrotation
                    JOINT LeftHandThumb1
                    {
                      OFFSET 2.48905 0.190105 3.12053
                      CHANNELS 3 Zrotation Xrotation Yrotation
                      JOINT LeftHandThumb2
                      {
                        OFFSET 3.68274 0 0
                        CHANNELS 3 Zrotation Xrotation Yrotation
                        JOINT LeftHandThumb3
                        {
                          OFFSET 2.55832 0 0
                          CHANNELS 3 Zrotation Xrotation Yrotation
                          End Site
                          {
                            OFFSET 2.194 0 0
                          }
                        }
                      }
                    }
                    JOINT LeftInHandIndex
                    {
                      OFFSET 3.22368 0.508421 1.97842
                      CHANNELS 3 Zrotation Xrotation Yrotation
                      JOINT LeftHandIndex1
                      {
                        OFFSET 5.21684 -0.091368 0.999158
                        CHANNELS 3 Zrotation Xrotation Yrotation
                        JOINT LeftHandIndex2
                        {
                          OFFSET 3.61937 0 0
                          CHANNELS 3 Zrotation Xrotation Yrotation
                          JOINT LeftHandIndex3
                          {
                            OFFSET 2.0521 0 0
                            CHANNELS 3 Zrotation Xrotation Yrotation
                            End Site
                            {
                              OFFSET 1.805 0 0
                            }
                          }
                        }
                      }
                    }
                    JOINT LeftInHandMiddle
                    {
                      OFFSET 3.38211 0.517263 0.756737
                      CHANNELS 3 Zrotation Xrotation Yrotation
                      JOINT LeftHandMiddle1
                      {
                        OFFSET 5.17411 -0.084 0.313895
                        CHANNELS 3 Zrotation Xrotation Yrotation
                        JOINT LeftHandMiddle2
                        {
                          OFFSET 3.94947 0 0
                          CHANNELS 3 Zrotation Xrotation Yrotation
                          JOINT LeftHandMiddle3
                          {
                            OFFSET 2.47579 0 0
                            CHANNELS 3 Zrotation Xrotation Yrotation
                            End Site
                            {
                              OFFSET 1.975 0 0
                            }
                          }
                        }
                      }
                    }
                    JOINT LeftInHandRing
                    {
                      OFFSET 3.36516 0.537895 -0.128947
                      CHANNELS 3 Zrotation Xrotation Yrotation
                      JOINT LeftHandRing1
                      {
                        OFFSET 4.63474 -0.022105 -0.478947
                        CHANNELS 3 Zrotation Xrotation Yrotation
                        JOINT LeftHandRing2
                        {
                          OFFSET 3.44238 0 0
                          CHANNELS 3 Zrotation Xrotation Yrotation
                          JOINT LeftHandRing3
                          {
                            OFFSET 2.3881 0 0
                            CHANNELS 3 Zrotation Xrotation Yrotation
                            End Site
                            {
                              OFFSET 1.857 0 0
                            }
                          }
                        }
                      }
                    }
                    JOINT LeftInHandPinky
                    {
                      OFFSET 3.16105 0.469368 -1.20179
                      CHANNELS 3 Zrotation Xrotation Yrotation
                      JOINT LeftHandPinky1
                      {
                        OFFSET 4.14105 -0.022105 -1.09053
                        CHANNELS 3 Zrotation Xrotation Yrotation
                        JOINT LeftHandPinky2
                        {
                          OFFSET 2.75653 0 0
                          CHANNELS 3 Zrotation Xrotation Yrotation
                          JOINT LeftHandPinky3
                          {
                            OFFSET 1.74189 0 0
                            CHANNELS 3 Zrotation Xrotation Yrotation
                            End Site
                            {
                              OFFSET 1.645 0 0
                            }
                          }
                        }
                      }
                    }
                  }
                }
              }
            }
          }
        }
      }
    }
  }
}
MOTION
Frames:	4
Frame Time:	0.00833333
0 0 0 0 0 -0 18.886 -17.148 -162.228 31.0995 -32.9454 23.9074 -13.2973 11.761 41.9034 5.57455 2.08654 60.48 30.7523 -7.94315 31.6253 9.55705 10.8689 -4.05144 10.5343 -10.5697 18.9856 -10.682 13.3768 -4.16418 -2.73735 3.10061 -1.72977 -4.42013 4.87666 -3.122 -0.630921 -0.35355 2.34185 -2.65118 -0.514659 17.8376 -10.6941 -2.76071 33.8793 -1.3918 -9.35912 11.2741 68.9629 -12.1953 40.4077 -6.52538 -68.5372 65.5729 -0.270399 -23.668 9.50641 28.184 10.7294 19.1592 -7.30047e-15 -4.77083e-15 -10 -1.61481e-15 0 -10 0 0 -0 19.9818 0.871897 2.3964 24 3.57812e-15 3.18055e-15 20 -3.18055e-15 -6.36111e-15 0 0 -0 20 -7.95139e-16 6.36111e-15 24 0 3.18055e-15 20 4.77083e-15 -0 0 0 -0 19.9748 -1.02565 -2.81938 24 4.77083e-15 1.59028e-14 20 3.18055e-15 3.18055e-15 0 0 -0 19.7815 -3.00948 -8.30515 24 2.38542e-15 3.18055e-15 20 -4.77083e-15 -3.18055e-15 -18.8578 -29.0368 -19.0606 6.18744 50.9543 -125.758 28.3292 13.8102 -27.453 46.7577 48.8644 5.6634 -28.184 10.7294 -19.1592 3.51003e-15 -1.59028e-15 10 8.41226e-16 -4.77083e-15 10 3.18055e-15 1.59028e-15 -0 -19.9818 0.871897 -2.3964 -24 2.88238e-15 -1.59028e-14 -20 0 -1.74931e-14 3.18055e-15 1.59028e-15 -0 -20 1.19271e-14 -7.95139e-15 -24 3.77691e-15 -9.54166e-15 -20 5.96354e-15 -3.02153e-14 3.18055e-15 1.59028e-15 -0 -19.9748 -1.02565 2.81938 -24 7.30534e-15 -1.11319e-14 -20 1.39149e-14 -2.70347e-14 3.18055e-15 1.59028e-15 -0 -19.7815 -3.00948 8.30515 -24 -8.19987e-16 -2.38542e-15 -20 2.78299e-15 -2.94201e-14 
0 0 0 0 0 -0 18.8732 -17.2438 -162.079 30.9835 -33.095 23.8941 -13.3262 11.7697 41.9612 5.56693 2.00724 60.3493 30.6814 -8.02878 31.7648 9.46186 10.7611 -4.0392 10.3361 -10.6096 18.7568 -10.6709 13.3689 -4.21339 -2.73557 3.09929 -1.74168 -4.41726 4.86833 -3.14124 -0.627572 -0.353615 2.34236 -2.63364 -0.509609 17.7889 -10.6446 -2.75771 33.9075 -1.34139 -9.39116 11.2414 68.987 -12.2967 40.3876 -6.94056 -68.4534 65.5753 -0.357719 -23.7358 9.5715 28.184 10.7294 19.1592 -3.72279e-15 6.36111e-15 -10 -6.11119e-15 1.11319e-14 -10 -6.36111e-15 3.18055e-15 -0 19.9818 0.871897 2.3964 24 -7.95139e-15 -1.90833e-14 20 0 -1.90833e-14 -6.36111e-15 3.18055e-15 -0 20 -8.74653e-15 -3.18055e-15 24 -7.15625e-15 -1.59028e-14 20 1.59028e-15 -1.59028e-14 -6.36111e-15 3.18055e-15 -0 19.9748 -1.02565 -2.81938 24 -1.03368e-14 -2.22639e-14 20 -7.95139e-15 -3.18055e-14 -6.36111e-15 3.18055e-15 -0 19.7815 -3.00948 -8.30515 24 -1.11319e-14 -3.18055e-14 20 1.59028e-15 -2.54444e-14 -18.8213 -29.059 -19.0597 6.30769 50.8813 -125.987 28.4194 13.8868 -27.5499 46.549 49.0302 5.51072 -28.184 10.7294 -19.1592 -5.0572e-15 -7.95139e-15 10 -1.13762e-14 -8.74653e-15 10 3.18055e-15 1.59028e-15 -3.18055e-15 -19.9818 0.871897 -2.3964 -24 1.09332e-15 -2.06736e-14 -20 1.27222e-14 -6.67916e-14 3.18055e-15 1.59028e-15 -3.18055e-15 -20 7.15625e-15 -6.36111e-15 -24 2.38542e-15 -1.74931e-14 -20 1.78906e-14 -6.83819e-14 3.18055e-15 1.59028e-15 -3.18055e-15 -19.9748 -1.02565 2.81938 -24 4.22417e-15 -1.90833e-14 -20 1.35174e-14 -1.00187e-13 3.18055e-15 1.59028e-15 -3.18055e-15 -19.7815 -3.00948 8.30515 -24 -7.70291e-15 -1.35174e-14 -20 1.35174e-14 -1.46306e-13 
0 0 0 0 0 -0 18.858 -17.3255 -161.915 30.854 -33.238 23.865 -13.3679 11.7761 42.0169 5.57445 1.91522 60.2116 30.6059 -8.14681 31.7894 9.36926 10.6999 -3.91018 10.1118 -10.6609 18.5143 -10.6411 13.3496 -4.27726 -2.72924 3.09888 -1.75563 -4.40743 4.85525 -3.16323 -0.62461 -0.353665 2.34286 -2.62363 -0.5047 17.7854 -10.6187 -2.724 33.9217 -1.31705 -9.39151 11.2565 69.0168 -12.3908 40.38 -7.38246 -68.3792 65.5364 -0.440344 -23.7944 9.63545 28.184 10.7294 19.1592 7.79364e-15 -1.59028e-15 -10 1.42529e-14 -1.59028e-15 -10 -3.18055e-15 3.18055e-15 -0 19.9818 0.871897 2.3964 24 -5.1684e-15 6.36111e-15 20 -4.77083e-15 6.36111e-15 -3.18055e-15 3.18055e-15 -0 20 6.36111e-15 -3.18055e-15 24 8.74653e-15 1.59028e-14 20 4.77083e-15 3.18055e-15 -3.18055e-15 3.18055e-15 -0 19.9748 -1.02565 -2.81938 24 -3.18055e-15 2.54444e-14 20 -3.18055e-15 9.54166e-15 -3.18055e-15 3.18055e-15 -0 19.7815 -3.00948 -8.30515 24 3.97569e-15 1.59028e-14 20 4.77083e-15 9.54166e-15 -18.7956 -29.0405 -19.0179 6.74137 50.5523 -126.253 28.4222 13.5689 -27.6529 46.3656 49.1019 5.49558 -28.184 10.7294 -19.1592 5.60818e-16 -3.18055e-15 10 1.40204e-16 -7.95139e-16 10 -3.18055e-15 0 -0 -19.9818 0.871897 -2.3964 -24 -5.96354e-16 1.27222e-14 -20 -1.59028e-15 1.59028e-14 -3.18055e-15 0 -0 -20 -2.38542e-15 9.54166e-15 -24 -5.86415e-15 1.59028e-14 -20 -7.95139e-15 4.77083e-15 -3.18055e-15 0 -0 -19.9748 -1.02565 2.81938 -24 -5.36719e-15 1.74931e-14 -20 -1.59028e-15 -3.18055e-15 -3.18055e-15 0 -0 -19.7815 -3.00948 8.30515 -24 -5.01931e-15 1.82882e-14 -20 -3.97569e-15 1.35174e-14 
0 0 0 0 0 -0 18.8444 -17.4001 -161.74 30.7157 -33.3808 23.8233 -13.4141 11.7758 42.062 5.59151 1.82281 60.0837 30.5254 -8.25268 31.8484 9.27554 10.6098 -3.82179 9.87337 -10.7378 18.2598 -10.5993 13.3427 -4.33305 -2.71986 3.09887 -1.76747 -4.39249 4.84864 -3.18196 -0.62241 -0.353701 2.34335 -2.60951 -0.497835 17.7583 -10.5938 -2.67849 33.9439 -1.30967 -9.39622 11.2679 69.0476 -12.4785 40.3929 -7.82914 -68.3086 65.4604 -0.513875 -23.8436 9.69587 28.184 10.7294 19.1592 -4.28361e-15 3.18055e-15 -10 -3.29726e-15 -9.54166e-15 -10 3.53113e-31 -3.18055e-15 6.36111e-15 19.9818 0.871897 2.3964 24 -3.18055e-15 -9.54166e-15 20 6.36111e-15 -3.18055e-15 3.53113e-31 -3.18055e-15 6.36111e-15 20 0 -3.18055e-15 24 -7.95139e-16 -1.90833e-14 20 -1.59028e-15 -0 3.53113e-31 -3.18055e-15 6.36111e-15 19.9748 -1.02565 -2.81938 24 0 -6.36111e-15 20 1.11319e-14 -0 3.53113e-31 -3.18055e-15 6.36111e-15 19.7815 -3.00948 -8.30515 24 -3.18055e-15 -1.59028e-14 20 4.77083e-15 9.54166e-15 -18.7953 -29.0118 -18.9824 6.80496 50.463 -126.319 28.4978 13.5725 -27.8219 46.2617 49.1837 5.42351 -28.184 10.7294 -19.1592 8.41226e-16 -4.77083e-15 10 -2.6688e-15 -3.18055e-15 10 6.36111e-15 0 -0 -19.9818 0.871897 -2.3964 -24 -1.08338e-14 -4.77083e-15 -20 1.27222e-14 -2.22639e-14 6.36111e-15 0 -0 -20 -1.43125e-14 1.59028e-15 -24 1.19271e-15 -3.18055e-15 -20 -1.27222e-14 -7.95139e-15 6.36111e-15 0 -0 -19.9748 -1.02565 2.81938 -24 9.44227e-15 -1.11319e-14 -20 -2.38542e-15 1.27222e-14 6.36111e-15 0 -0 -19.7815 -3.00948 8.30515 -24 -5.31749e-15 -1.19271e-14 -20 -3.97569e-15 -3.89618e-14 
